# xmcd
#
# Track frame offsets:
#	150
#	15524
#	30033
#	47167
#	63695
#	77884
#	95044
#	111332
#	126055
#	139417
#	155198
#
# Disc length: 2326 seconds
#
# Revision: 0
# Processed by: cddbd v1.5.2PL0 Copyright (c) Steve Scherf et al.
# Submitted via: EasyCDDAExtractor 12.1.0.1
#
DISCID=9609140b
DTITLE=3 Lanes Crossing - Sincerely
DYEAR=1900
DGENRE=
TTITLE0=Honey, I Do
TTITLE1=Bigger Than Texas
TTITLE2=You and I Belong
TTITLE3=When you Love Someone
TTITLE4=Sincerely
TTITLE5=Feed a Promise
TTITLE6=No Easy Way Out
TTITLE7=Letters in Red
TTITLE8=Blue Eyes Crying in the Rain
TTITLE9=A Man With 18 Wheels
TTITLE10=You Remain
EXTD=
EXTT0=
EXTT1=
EXTT2=
EXTT3=
EXTT4=
EXTT5=
EXTT6=
EXTT7=
EXTT8=
EXTT9=
EXTT10=
PLAYORDER=
